<?xml version="1.0" encoding="UTF-8" standalone="no"?>
<svg
   xmlns:dc="http://purl.org/dc/elements/1.1/"
   xmlns:cc="http://creativecommons.org/ns#"
   xmlns:rdf="http://www.w3.org/1999/02/22-rdf-syntax-ns#"
   xmlns:svg="http://www.w3.org/2000/svg"
   xmlns="http://www.w3.org/2000/svg"
   xmlns:sodipodi="http://sodipodi.sourceforge.net/DTD/sodipodi-0.dtd"
   xmlns:inkscape="http://www.inkscape.org/namespaces/inkscape"
   width="291.61206"
   height="400.00504"
   viewBox="0 0 77.155689 105.83467"
   version="1.1"
   id="svg99"
   inkscape:version="1.0 (4035a4fb49, 2020-05-01)"
   sodipodi:docname="windrad1.svg">
  <defs
     id="defs93" />
  <sodipodi:namedview
     id="base"
     pagecolor="#ffffff"
     bordercolor="#666666"
     borderopacity="1.0"
     inkscape:pageopacity="0.0"
     inkscape:pageshadow="2"
     inkscape:zoom="1.4"
     inkscape:cx="32.509608"
     inkscape:cy="194.78245"
     inkscape:document-units="mm"
     inkscape:current-layer="layer1"
     inkscape:document-rotation="0"
     showgrid="false"
     units="px"
     fit-margin-top="0"
     fit-margin-left="0"
     fit-margin-right="0"
     fit-margin-bottom="0"
     inkscape:window-width="1920"
     inkscape:window-height="1017"
     inkscape:window-x="-8"
     inkscape:window-y="-8"
     inkscape:window-maximized="1" />
  <metadata
     id="metadata96">
    <rdf:RDF>
      <cc:Work
         rdf:about="">
        <dc:format>image/svg+xml</dc:format>
        <dc:type
           rdf:resource="http://purl.org/dc/dcmitype/StillImage" />
        <dc:title />
      </cc:Work>
    </rdf:RDF>
  </metadata>
  <g
     inkscape:label="Ebene 1"
     inkscape:groupmode="layer"
     id="layer1"
     transform="translate(-55.986539,-79.791173)">
    <path
       transform="matrix(0.26458333,0,0,0.26458333,55.986539,79.791173)"
       d="M 0.64648438 0.39648438 C 0.39631745 0.36775997 0.33954798 0.5335077 0.44140625 0.8515625 C 0.64512279 1.4877175 1.4854739 2.7340844 3.9394531 5.7832031 C 6.393421 8.8323256 10.460572 13.682644 17.785156 21.890625 C 25.109741 30.098602 35.691998 41.662036 46.046875 53.658203 C 56.401745 65.654382 66.506501 78.054701 74.015625 87.125 C 81.524749 96.195299 86.426534 101.92412 89.738281 105.46875 C 93.050036 109.01342 94.770539 110.37591 96.480469 111.52148 C 98.19041 112.66702 99.889568 113.59396 101.26367 114.3457 C 102.63778 115.09741 103.68947 115.67256 104.77148 116.23828 C 105.85351 116.80404 106.96615 117.35997 107.94531 117.92188 C 108.92449 118.48382 109.76873 119.05053 110.67969 119.78516 C 111.59065 120.51978 112.56786 121.42244 113.18945 121.74805 C 113.36668 121.84065 113.513 121.88319 113.65234 121.88281 A 8.75265 8.75265 0 0 0 112.82617 125.5957 A 8.75265 8.75265 0 0 0 116.98828 133.05078 C 116.60006 133.83122 116.04853 135.45698 114.93555 138.73047 C 112.7204 145.24558 108.29049 158.27511 102.49219 177.29883 C 96.693878 196.32255 89.527059 221.33809 84.21875 239.87891 C 78.910441 258.41968 75.434188 270.57076 73.425781 278.05664 C 71.417378 285.54249 70.865969 288.38946 70.705078 290.00195 C 70.544184 291.61449 70.776031 291.98209 71.236328 291.49805 C 71.696644 291.014 72.387559 289.67879 73.884766 286.0625 C 75.381969 282.44621 77.683723 276.54883 81.369141 266.18359 C 85.054573 255.81835 90.123318 240.9864 95.677734 226.14453 C 101.23216 211.3027 107.25992 196.48594 111.61328 185.54492 C 114.58558 178.07485 116.72573 172.52745 118.29883 168.22461 L 114.62891 398.72852 L 128.07031 399.125 L 128.07031 138.99219 L 132.0332 138.99219 L 132.0332 127.25781 C 133.04057 127.09397 134.52608 126.79732 136.86328 126.32422 C 143.60832 124.96113 157.09693 122.23469 176.45508 117.67578 C 195.81329 113.11688 221.04011 106.72578 239.73438 101.98633 C 258.42867 97.246838 270.67427 94.13752 278.1543 92.107422 C 285.63428 90.077324 288.37311 89.12137 289.84766 88.449219 C 291.3222 87.777068 291.52489 87.392637 290.875 87.238281 C 290.22511 87.083699 288.72429 87.160268 284.8457 87.685547 C 280.96715 88.210788 274.71057 89.185615 263.89844 91.214844 C 253.08627 93.244072 237.71694 96.326222 222.0957 98.992188 C 206.47442 101.65815 190.63797 103.90292 178.99219 105.64453 C 167.34644 107.38614 159.91012 108.62146 155.16406 109.625 C 150.418 110.62854 148.36243 111.39955 146.49805 112.27148 C 144.63366 113.14342 142.95914 114.11634 141.60547 114.9043 C 140.2518 115.69225 139.21928 116.29567 138.17578 116.92969 C 137.13226 117.5637 136.08082 118.22751 135.09375 118.77539 C 134.10668 119.32331 133.18364 119.75401 132.08398 120.1543 C 132.0673 120.16037 132.04996 120.16581 132.0332 120.17188 L 132.0332 118.45703 L 126.63867 118.45703 A 8.75265 8.75265 0 0 0 121.57812 116.84375 A 8.75265 8.75265 0 0 0 117.79883 117.70117 C 117.76103 117.16353 116.81841 116.1348 113.49023 112.50781 C 108.83769 107.43758 99.535478 97.2973 85.628906 83.080078 C 71.722327 68.862822 53.212223 50.569235 39.494141 37.013672 C 25.776058 23.458098 16.786985 14.579384 11.183594 9.2246094 C 5.5802023 3.8698239 3.3471892 2.0185695 2.0097656 1.1035156 C 1.3410425 0.6459887 0.89666264 0.42504626 0.64648438 0.39648438 z "
       style="fill:#ffffff;fill-opacity:0.304348;stroke:none;stroke-width:1.75894;stroke-linecap:round;stroke-linejoin:round;stroke-opacity:0.30434781"
       id="rect40" />
  </g>
</svg>
