<?xml version="1.0" encoding="UTF-8" standalone="no"?>
<svg
   xmlns:dc="http://purl.org/dc/elements/1.1/"
   xmlns:cc="http://creativecommons.org/ns#"
   xmlns:rdf="http://www.w3.org/1999/02/22-rdf-syntax-ns#"
   xmlns:svg="http://www.w3.org/2000/svg"
   xmlns="http://www.w3.org/2000/svg"
   xmlns:sodipodi="http://sodipodi.sourceforge.net/DTD/sodipodi-0.dtd"
   xmlns:inkscape="http://www.inkscape.org/namespaces/inkscape"
   width="286.22919"
   height="399.99997"
   viewBox="0 0 75.731463 105.83324"
   version="1.1"
   id="svg70"
   inkscape:version="1.0 (4035a4fb49, 2020-05-01)"
   sodipodi:docname="windrad2.svg">
  <defs
     id="defs64" />
  <sodipodi:namedview
     id="base"
     pagecolor="#ffffff"
     bordercolor="#666666"
     borderopacity="1.0"
     inkscape:pageopacity="0.0"
     inkscape:pageshadow="2"
     inkscape:zoom="1.4"
     inkscape:cx="133.8141"
     inkscape:cy="189.96646"
     inkscape:document-units="mm"
     inkscape:current-layer="layer1"
     inkscape:document-rotation="0"
     showgrid="false"
     units="px"
     fit-margin-top="0"
     fit-margin-right="0"
     fit-margin-bottom="0"
     fit-margin-left="0"
     inkscape:window-width="1920"
     inkscape:window-height="1017"
     inkscape:window-x="-8"
     inkscape:window-y="-8"
     inkscape:window-maximized="1" />
  <metadata
     id="metadata67">
    <rdf:RDF>
      <cc:Work
         rdf:about="">
        <dc:format>image/svg+xml</dc:format>
        <dc:type
           rdf:resource="http://purl.org/dc/dcmitype/StillImage" />
        <dc:title />
      </cc:Work>
    </rdf:RDF>
  </metadata>
  <g
     inkscape:label="Ebene 1"
     inkscape:groupmode="layer"
     id="layer1"
     transform="translate(-58.813159,-84.151053)">
    <path
       id="path47-8"
       style="fill:#ffffff;stroke:none;stroke-width:1.74586;stroke-linecap:round;stroke-linejoin:round;fill-opacity:0.30434781;stroke-opacity:0.30434781"
       d="M 285.58398 0.39453125 C 285.52475 0.40238558 285.45652 0.42018253 285.37891 0.44921875 C 284.75789 0.68147072 283.5624 1.57426 280.65625 4.1523438 C 277.7501 6.73042 273.13459 10.99398 265.3457 18.646484 C 257.55681 26.298992 246.59565 37.340593 235.19531 48.177734 C 223.79497 59.014883 211.98267 69.623502 203.34766 77.5 C 194.71261 85.376535 189.26675 90.50883 185.91016 93.960938 C 182.55356 97.413007 181.28481 99.183786 180.23047 100.93359 C 179.17613 102.6834 178.33615 104.41246 177.65625 105.81055 C 176.97639 107.20871 176.45663 108.27726 175.94727 109.37695 C 175.43786 110.47664 174.94015 111.60794 174.42969 112.60547 C 173.91919 113.603 173.39586 114.46618 172.71094 115.4043 C 172.02597 116.34241 171.17993 117.35454 170.88672 117.98633 C 170.80319 118.16623 170.76821 118.31314 170.77539 118.45117 A 8.687574 8.687574 0 0 0 167.05273 117.80859 A 8.687574 8.687574 0 0 0 159.86133 122.29102 C 159.0691 121.9433 157.43119 121.47299 154.13281 120.52539 C 147.56815 118.63941 134.43931 114.86637 115.30273 110.02344 C 96.166155 105.1805 71.023103 99.266851 52.388672 94.886719 C 33.754165 90.506586 21.542644 87.640694 14.025391 86.005859 C 6.5081371 84.371063 3.6591092 83.959725 2.0527344 83.876953 C 0.44643516 83.794181 0.091979921 84.0414 0.59375 84.474609 C 1.0955579 84.907932 2.4528711 85.529583 6.109375 86.841797 C 9.7659167 88.154011 15.722074 90.156041 26.173828 93.316406 C 36.62562 96.476772 51.573749 100.79352 66.552734 105.59375 C 81.531682 110.39398 96.5081 115.66576 107.5625 119.46094 C 118.6169 123.25611 125.73157 125.56951 130.37109 126.85742 C 135.01058 128.1453 137.1757 128.40703 139.2168 128.49219 C 141.25793 128.57723 143.17566 128.48581 144.72852 128.41211 C 146.28137 128.33765 147.46851 128.2801 148.67773 128.19922 C 149.88696 128.11834 151.11619 128.01341 152.23633 127.98242 C 153.35647 127.95219 154.36588 127.99373 155.51758 128.14453 C 156.66934 128.29533 157.96518 128.55381 158.66016 128.50781 C 158.79849 128.50025 158.90715 128.47416 159.00391 128.4375 A 8.687574 8.687574 0 0 0 164.62891 134.69531 L 160.42383 398.73438 L 173.76562 399.12695 L 173.76562 165.61523 C 175.00216 170.13569 176.35603 175.00758 177.93555 180.51562 C 183.37693 199.49074 190.91512 224.19561 196.50391 242.50391 C 202.09266 260.81235 205.75626 272.80579 208.125 280.125 C 210.49378 287.44424 211.57204 290.11501 212.30859 291.54492 C 213.04522 292.97479 213.43655 293.15749 213.55859 292.50586 C 213.68067 291.85416 213.53456 290.3691 212.82812 286.54883 C 212.12275 282.72856 210.85857 276.572 208.33203 265.94922 C 205.80549 255.3264 202.01762 240.23733 198.63086 224.87695 C 195.24414 209.51654 192.26543 193.92199 189.98438 182.45898 C 187.70332 170.99606 186.12317 163.68102 184.90234 159.02344 C 183.68144 154.36585 182.82038 152.36547 181.86719 150.55859 C 180.91395 148.75172 179.86907 147.13853 179.02344 145.83398 C 178.17777 144.5294 177.53175 143.53371 176.85352 142.5293 C 176.49169 141.99351 176.12239 141.45737 175.76562 140.92773 L 177.69922 140.92773 L 177.69922 120.54492 L 177.36133 120.54492 C 178.04606 119.87354 178.86538 119.053 180.06055 117.8457 C 184.86584 112.99173 194.47688 103.28445 207.91016 88.820312 C 221.34339 74.356212 238.59855 55.136367 251.38477 40.890625 C 264.17102 26.644886 272.54577 17.308296 277.58789 11.498047 C 282.62997 5.6877981 284.35762 3.3851406 285.20117 2.015625 C 285.62293 1.3308578 285.82344 0.88220463 285.83984 0.6328125 C 285.85402 0.44575423 285.76169 0.37096826 285.58398 0.39453125 z "
       transform="matrix(0.26458333,0,0,0.26458333,58.813159,84.151053)" />
  </g>
</svg>
